# xmcd CD database file
#
# Track frame offsets:
#	150
#	18500
#	39660
#
# Disc length: 747 seconds
#
# Revision: 1
# Processed by: cddbd v1.5.1PL2 Copyright (c) Steve Scherf et al.
# Submitted via: CDex 1.51
#
DISCID=1d02e903
DTITLE=Eternal - What'cha gonna do
DYEAR=1999
DGENRE=R&B
TTITLE0=What'cha gonna do (beatmasters vocal 7")
TTITLE1=What'cha gonna do (dj thomillas club mix)
TTITLE2=Got to be the one
EXTD=Group:Eternal\nTitel:1.What`cha gonna do (beatmasters vocal 7"]\n        2.What`cha gonna do (dj thomillas club mix]\n        3.got to be the one YEAR: 1999
EXTT0=
EXTT1=
EXTT2=
PLAYORDER=
